# xmcd CD database file
#
# Track frame offsets:
#	150
#	24181
#	49590
#	76133
#	95475
#	118272
#	139880
#	166008
#	189971
#
# Disc length: 2907 seconds
#
# Revision: 0
# Processed by: cddbd v1.5.2PL0 Copyright (c) Steve Scherf et al.
# Submitted via: CDex 1.77
#
DISCID=650b5909
DTITLE=Akira Jimbo - JIMBO de CTI
DYEAR=2015
DGENRE=Jazz
TTITLE0=Super Strut
TTITLE1=Also Sparach Zarathustra(2001)
TTITLE2=Tombo In 7/4
TTITLE3=Carly and Carole
TTITLE4=Stone Flower
TTITLE5=Red Clay
TTITLE6=Skyscrapers
TTITLE7=Spirit Of Summer
TTITLE8=The Answer Is Yes
EXTD=YEAR: 2015
EXTT0=
EXTT1=
EXTT2=
EXTT3=
EXTT4=
EXTT5=
EXTT6=
EXTT7=
EXTT8=
PLAYORDER=
